HIERARCHY
ROOT SpineBase
{
  OFFSET 0.000000 0.000000 0.000000
  CHANNELS 6 Xposition Yposition Zposition Zrotation Xrotation Yrotation
  JOINT SpineMid
  {
    OFFSET 0.000000 32.267384 0.000000
    CHANNELS 3 Zrotation Xrotation Yrotation
    JOINT SpineShoulder
    {
      OFFSET 0.317100 24.016761 -0.807536
      CHANNELS 3 Zrotation Xrotation Yrotation
      JOINT Neck
      {
        OFFSET 0.236475 7.952910 -0.608289
        CHANNELS 3 Zrotation Xrotation Yrotation
        JOINT Head
        {
          OFFSET -6.056337 13.780018 -1.083759
          CHANNELS 3 Zrotation Xrotation Yrotation
          End Site
          {
            OFFSET 0 0 0
          }
        }
      }
      JOINT ShoulderLeft
      {
        OFFSET -16.388346 -5.803938 6.264113
        CHANNELS 3 Zrotation Xrotation Yrotation
        JOINT ElbowLeft
        {
          OFFSET -2.505029 -32.474550 0.119546
          CHANNELS 3 Zrotation Xrotation Yrotation
          JOINT WristLeft
          {
            OFFSET -2.226216 -14.377160 -20.795664
            CHANNELS 3 Zrotation Xrotation Yrotation
            JOINT HandLeft
            {
              OFFSET -1.050211 -1.163007 -5.291298
              CHANNELS 3 Zrotation Xrotation Yrotation
              JOINT HandTipLeft
              {
                OFFSET 0.302385 -2.839294 -8.147273
                CHANNELS 3 Zrotation Xrotation Yrotation
                End Site
                {
                  OFFSET 0 0 0
                }
              }
              JOINT ThumbLeft
              {
                OFFSET 5.774828 0.698027 -0.903938
                CHANNELS 3 Zrotation Xrotation Yrotation
                End Site
                {
                  OFFSET 0 0 0
                }
              }
            }
          }
        }
      }
      JOINT ShoulderRight
      {
        OFFSET 15.198206 -3.579211 -7.593864
        CHANNELS 3 Zrotation Xrotation Yrotation
        JOINT ElbowRight
        {
          OFFSET 10.406113 -23.428723 1.457084
          CHANNELS 3 Zrotation Xrotation Yrotation
          JOINT WristRight
          {
            OFFSET -8.533163 -19.797076 -12.759620
            CHANNELS 3 Zrotation Xrotation Yrotation
            JOINT HandRight
            {
              OFFSET -3.700387 -1.780536 -2.180423
              CHANNELS 3 Zrotation Xrotation Yrotation
              JOINT HandTipRight
              {
                OFFSET -2.578658 -4.163947 -2.317217
                CHANNELS 3 Zrotation Xrotation Yrotation
                End Site
                {
                  OFFSET 0 0 0
                }
              }
              JOINT ThumbRight
              {
                OFFSET 0.935418 -1.138847 -4.636860
                CHANNELS 3 Zrotation Xrotation Yrotation
                End Site
                {
                  OFFSET 0 0 0
                }
              }
            }
          }
        }
      }
    }
  }
  JOINT HipLeft
  {
    OFFSET -6.367205 -0.101238 -1.067483
    CHANNELS 3 Zrotation Xrotation Yrotation
    JOINT KneeLeft
    {
      OFFSET 1.627776 -33.094055 4.439130
      CHANNELS 3 Zrotation Xrotation Yrotation
      JOINT AnkleLeft
      {
        OFFSET 5.813387 -38.450519 8.262892
        CHANNELS 3 Zrotation Xrotation Yrotation
        JOINT FootLeft
        {
          OFFSET -2.337092 -7.145982 -8.263859
          CHANNELS 3 Zrotation Xrotation Yrotation
          End Site
          {
            OFFSET 0 0 0
          }
        }
      }
    }
  }
  JOINT HipRight
  {
    OFFSET 8.215862 1.802057 -6.183283
    CHANNELS 3 Zrotation Xrotation Yrotation
    JOINT KneeRight
    {
      OFFSET 6.483393 -35.387295 2.980289
      CHANNELS 3 Zrotation Xrotation Yrotation
      JOINT AnkleRight
      {
        OFFSET 3.293578 -37.143592 5.938627
        CHANNELS 3 Zrotation Xrotation Yrotation
        JOINT FootRight
        {
          OFFSET -1.842469 -8.090467 -5.558976
          CHANNELS 3 Zrotation Xrotation Yrotation
          End Site
          {
            OFFSET 0 0 0
          }
        }
      }
    }
  }
}
MOTION
Frames: 16
Frame Time: 0.033333
-83.074468 81.006370 337.418836 -0.000000 0.000000 19.331081 -0.000000 0.000000 -19.331081 -0.000000 0.000000 0.000000 -0.000000 0.000000 0.000000 0.000000 0.000000 0.000000 -0.000000 0.000000 0.000000 -0.000000 0.000000 0.000000 -0.000000 0.000000 0.000000 -0.000000 0.000000 0.000000 0.000000 0.000000 0.000000 0.000000 0.000000 0.000000 -0.000000 0.000000 0.000000 -0.000000 0.000000 0.000000 -0.000000 0.000000 0.000000 -0.000000 0.000000 0.000000 0.000000 0.000000 0.000000 0.000000 0.000000 0.000000 -0.000000 0.000000 -19.331081 -0.000000 0.000000 0.000000 -0.000000 0.000000 0.000000 0.000000 0.000000 0.000000 -0.000000 0.000000 -19.331081 -0.000000 0.000000 0.000000 -0.000000 0.000000 0.000000 0.000000 0.000000 0.000000
-82.843747 81.038738 337.519352 0.139887 -0.065874 19.317987 -0.110219 0.108441 -19.317802 -0.000000 0.000000 0.000000 -0.000000 0.000000 0.000000 0.000000 0.000000 0.000000 -0.000000 0.000000 0.000000 -0.000000 0.000000 0.000000 -3.760642 7.875564 7.623254 3.662789 -6.444141 -8.773665 0.000000 0.000000 0.000000 0.000000 0.000000 0.000000 -0.000000 0.000000 0.000000 -1.905186 0.987881 0.808354 5.553551 -7.137785 8.788837 -7.274310 13.212415 -8.911346 0.000000 0.000000 0.000000 0.000000 0.000000 0.000000 -0.110219 0.108441 -19.317802 -0.000000 0.000000 0.000000 1.344548 -7.546447 1.092877 0.000000 0.000000 0.000000 -0.110219 0.108441 -19.317802 -0.000000 0.000000 0.000000 -0.121284 6.286177 -1.293829 0.000000 0.000000 0.000000
-82.641960 81.070461 337.603745 0.259819 -0.114016 19.294570 -0.207553 0.193461 -19.293961 -0.000000 0.000000 0.000000 -0.000000 0.000000 0.000000 0.000000 0.000000 0.000000 0.319737 0.755828 -0.059250 0.297101 -0.259195 -0.902937 -10.546881 16.399538 17.863046 7.144098 -15.851132 -17.665898 0.000000 0.000000 0.000000 0.000000 0.000000 0.000000 -0.000000 0.000000 0.000000 -3.639738 1.896240 1.551619 10.377790 -12.406734 16.256373 -11.016795 25.325529 -15.190480 0.000000 0.000000 0.000000 0.000000 0.000000 0.000000 -1.023338 0.140971 -19.408225 0.751984 0.320595 0.114541 2.813783 -13.532022 1.784694 0.000000 0.000000 0.000000 -0.207553 0.193461 -19.293961 -0.000000 0.000000 0.000000 -0.404928 11.143869 -2.086354 0.000000 0.000000 0.000000
-82.469106 81.101538 337.672015 0.359811 -0.144426 19.260659 -0.292033 0.255029 -19.259556 -0.000000 0.000000 0.000000 -0.000000 0.000000 0.000000 0.000000 0.000000 0.000000 0.439565 1.155557 -0.091986 0.354760 -0.280189 -1.177963 -17.903213 24.161077 26.979620 9.829327 -25.648514 -24.529546 0.000000 0.000000 0.000000 0.000000 0.000000 0.000000 -0.000000 0.000000 0.000000 -5.201009 2.732126 2.222751 14.172237 -16.188985 22.261068 -12.282953 35.402219 -20.024581 0.000000 0.000000 0.000000 0.000000 0.000000 0.000000 -1.433558 0.221756 -19.417951 1.065524 0.410904 0.159324 4.217570 -17.485567 1.891908 0.000000 0.000000 0.000000 -0.292033 0.255029 -19.259556 -0.000000 0.000000 0.000000 -0.919089 14.848577 -2.427137 0.000000 0.000000 0.000000
-82.325186 81.131971 337.724162 0.439872 -0.157100 19.216183 -0.363662 0.293118 -19.214650 -0.000000 0.000000 0.000000 -0.000000 0.000000 0.000000 0.000000 0.000000 0.000000 0.532182 1.570026 -0.126501 0.352069 -0.227149 -1.337204 -23.377116 29.549240 32.229045 12.122729 -32.646419 -27.694995 0.000000 0.000000 0.000000 0.000000 0.000000 0.000000 -0.000000 0.000000 0.000000 -6.587967 3.502905 2.816145 16.866892 -18.910374 26.928213 -11.705667 43.284503 -24.232252 0.000000 0.000000 0.000000 0.000000 0.000000 0.000000 -1.784133 0.307832 -19.410100 1.211986 1.298041 0.298901 5.532198 -20.038771 1.235779 0.000000 0.000000 0.000000 -0.363662 0.293118 -19.214650 -0.457105 0.696900 -0.008519 -1.252551 16.921198 -2.351637 0.000000 0.000000 0.000000
-82.210199 81.161758 337.760186 0.500002 -0.152024 19.161168 -0.422409 0.307709 -19.159370 -0.000000 0.000000 0.000000 -0.000000 0.000000 0.000000 0.000000 0.000000 0.000000 0.597202 1.999378 -0.162542 0.288421 -0.099406 -1.381521 -24.701757 32.602466 31.639317 14.579440 -35.252188 -27.082230 0.000000 0.000000 0.000000 0.000000 0.000000 0.000000 -0.000000 0.000000 0.000000 -7.800619 4.215860 3.327313 18.487067 -20.886029 30.451892 -9.652745 49.098475 -28.290160 0.000000 0.000000 0.000000 0.000000 0.000000 0.000000 -2.079368 0.399040 -19.385669 1.465210 1.347289 0.339170 6.458114 -19.466376 -0.222173 0.000000 0.000000 0.000000 -0.422409 0.307709 -19.159370 -0.511769 0.750825 -0.011910 -2.307121 18.850695 -1.867601 0.000000 0.000000 0.000000
-82.115856 81.188617 337.772475 0.557034 -0.111831 19.049908 -0.490032 0.287511 -19.048135 -0.000000 0.000000 0.000000 -0.000000 0.000000 0.000000 0.000000 0.000000 0.000000 0.636203 2.641414 -0.216226 0.175229 -0.657643 -1.232198 -17.354981 33.216815 18.389839 17.918737 -31.395595 -22.309969 0.000000 0.000000 0.000000 0.000000 0.000000 0.000000 -0.000000 0.000000 0.000000 -7.795738 4.375230 3.266468 19.420407 -22.333614 35.108711 -4.091686 54.925578 -35.852165 0.000000 0.000000 0.000000 0.000000 0.000000 0.000000 -2.352852 0.478467 -19.301346 1.641931 1.272763 0.350564 6.582371 -13.146198 -3.126269 0.000000 0.000000 0.000000 -1.315268 0.432776 -19.136931 0.268605 0.937392 0.080495 -3.590720 21.999081 -1.400726 0.000000 0.000000 0.000000
-82.095980 81.213304 337.755529 0.555755 -0.044556 18.934766 -0.511228 0.222478 -18.933557 0.784973 0.234868 0.051467 -1.708682 0.428907 0.166116 0.000000 0.000000 0.000000 -0.128974 2.780779 -0.299661 0.038333 -0.681783 -1.084278 -12.610932 31.836011 10.410027 19.007863 -26.686898 -19.704835 0.000000 0.000000 0.000000 0.000000 0.000000 0.000000 -0.785191 -0.234141 -0.054680 -8.796179 5.150975 3.628421 19.891925 -23.485251 36.478431 -0.645843 56.947490 -39.535596 0.000000 0.000000 0.000000 0.000000 0.000000 0.000000 -2.469841 0.527662 -19.199721 1.949973 0.356069 0.272927 7.529608 -5.861716 -6.970009 0.000000 0.000000 0.000000 -1.361919 0.435228 -19.016069 0.304023 0.816499 0.066071 -4.780817 16.411438 0.460584 0.000000 0.000000 0.000000
-82.061955 81.251541 337.742908 0.557433 0.000159 18.864588 -0.527543 0.180083 -18.863760 0.801821 0.335000 0.049045 -1.890399 0.598801 0.274349 0.000000 0.000000 0.000000 -0.186937 2.858634 -0.311568 -0.355506 0.557899 -0.678979 -6.526070 23.648347 2.298647 16.996786 -16.126046 -18.060040 0.000000 0.000000 0.000000 0.000000 0.000000 0.000000 -0.370324 0.336585 0.270808 -10.501615 5.763007 3.610978 16.820274 -23.677215 34.621212 2.234688 53.645325 -39.754758 0.000000 0.000000 0.000000 0.000000 0.000000 0.000000 -2.616771 0.671318 -19.145306 2.134695 0.221402 0.292946 9.407850 -1.943306 -10.571679 0.000000 0.000000 0.000000 -1.378976 0.537115 -18.924637 0.341568 0.520453 0.028076 -8.166852 20.006017 2.479329 0.000000 0.000000 0.000000
-82.050376 81.284571 337.740345 0.532421 0.034310 18.835265 -0.514988 0.139417 -18.834798 0.782110 0.423869 0.044347 -1.850922 0.524884 0.284599 0.000000 0.000000 0.000000 -0.241868 2.853840 -0.312635 -0.640967 1.881717 -0.385417 -4.060565 16.254772 0.179298 15.051689 -7.129479 -17.879869 0.000000 0.000000 0.000000 0.000000 0.000000 0.000000 -0.350123 0.316956 0.305597 -12.384800 6.843054 4.388593 12.427547 -23.739446 32.996458 6.484348 48.468627 -40.282985 0.000000 0.000000 0.000000 0.000000 0.000000 0.000000 -2.679267 0.783085 -19.124695 2.255616 0.101299 0.305328 10.030873 1.114708 -12.259963 0.000000 0.000000 0.000000 -1.378879 0.594750 -18.882725 0.964752 -0.151188 0.054735 -12.192191 25.336428 4.488919 0.000000 0.000000 0.000000
-82.063580 81.305447 337.742656 0.468780 0.088956 18.856592 -0.472371 0.067329 -18.856678 0.736570 0.527002 0.037301 -0.736944 -0.526479 -0.044074 0.000000 0.000000 0.000000 -0.369631 2.833347 -0.309489 -0.842944 4.870239 -0.301790 -3.902336 9.575996 2.553772 12.731835 -2.536231 -16.349980 0.000000 0.000000 0.000000 0.000000 0.000000 0.000000 -0.164623 0.331365 0.372945 -15.693779 8.402068 5.801891 7.897413 -23.882010 30.308208 14.191773 44.089183 -43.518557 0.000000 0.000000 0.000000 0.000000 0.000000 0.000000 -2.648723 0.811615 -19.148788 2.299999 0.011189 0.308580 11.286600 3.492363 -14.462317 0.000000 0.000000 0.000000 -1.250798 0.609729 -18.880977 0.912068 -0.261261 0.030977 -13.331137 26.060069 5.277261 0.000000 0.000000 0.000000
-82.071788 81.322087 337.748577 0.412590 0.153063 18.929728 -0.439931 -0.010935 -18.930321 0.720541 0.625317 0.032606 -0.289026 -1.361468 -0.321980 0.000000 0.000000 0.000000 -0.647096 2.780353 -0.304390 -1.934678 9.712162 0.866074 -4.412441 4.413839 6.657025 9.475923 -0.524671 -11.146206 0.000000 0.000000 0.000000 0.000000 0.000000 0.000000 0.140087 0.431906 0.482694 -20.427533 10.564558 7.812958 6.092147 -24.746504 26.844617 15.959697 38.996448 -41.349303 0.000000 0.000000 0.000000 0.000000 0.000000 0.000000 -2.598099 0.824157 -19.221115 2.312732 -0.077627 0.307679 11.449306 2.319467 -14.335692 0.000000 0.000000 0.000000 -1.143763 0.596898 -18.935904 0.863003 -0.346492 0.011791 -12.651030 22.715116 5.186811 0.000000 0.000000 0.000000
-82.077603 81.321950 337.762901 0.376655 0.215405 19.027138 -0.426302 -0.080836 -19.028147 0.730969 0.665330 0.031902 1.023161 -2.997056 -0.863946 0.000000 0.000000 0.000000 -1.024419 2.721983 -0.297508 -2.892448 15.728860 1.794126 -7.651444 -1.772449 16.400275 6.501318 -4.733223 -10.287048 0.000000 0.000000 0.000000 0.000000 0.000000 0.000000 0.535745 0.883056 0.720803 -25.728405 12.500612 9.960978 3.263254 -24.434945 21.966980 17.433645 31.608363 -37.366324 0.000000 0.000000 0.000000 0.000000 0.000000 0.000000 -2.530184 0.822338 -19.312931 2.284164 -0.156137 0.301512 11.546771 -1.131388 -13.453111 0.000000 0.000000 0.000000 -1.042515 0.583263 -19.014505 0.798979 -0.427059 -0.007962 -9.718383 15.221562 4.055538 0.000000 0.000000 0.000000
-82.081772 81.308426 337.778468 0.361388 0.280190 19.165670 -0.433345 -0.146011 -19.167105 0.792626 0.703046 0.034882 2.517910 -4.989813 -1.480914 0.000000 0.000000 0.000000 -1.455711 2.751002 -0.301557 -3.741642 22.070925 2.538344 -12.002407 -7.708598 26.030876 9.219089 -9.239455 -21.015975 0.000000 0.000000 0.000000 0.000000 0.000000 0.000000 0.861044 1.465312 1.005195 -31.254650 14.409516 12.211018 2.046639 -24.286288 17.316905 17.815490 25.368059 -33.048564 0.000000 0.000000 0.000000 0.000000 0.000000 0.000000 -2.450047 0.812735 -19.441511 2.220819 -0.232456 0.290646 9.867157 -6.781051 -9.535182 0.000000 0.000000 0.000000 -0.975791 0.557228 -19.138642 0.743049 -0.486495 -0.023362 -7.306654 11.698768 2.859768 0.000000 0.000000 0.000000
-82.068386 81.266640 337.788329 0.383141 0.350399 19.311741 0.300392 0.234236 -19.303012 0.312507 0.073539 0.037160 4.145056 -7.285348 -2.127614 0.000000 0.000000 0.000000 -1.862296 2.938749 -0.321809 -4.270288 28.328518 2.805469 -18.479470 -11.015677 34.528518 13.814836 -19.196959 -37.358090 0.000000 0.000000 0.000000 0.000000 0.000000 0.000000 1.475886 1.944332 1.255036 -36.726560 15.998638 14.410144 -0.176937 -22.974670 12.845868 17.781087 18.570178 -27.912748 0.000000 0.000000 0.000000 0.000000 0.000000 0.000000 -2.449650 0.736443 -19.584765 2.173313 -0.224610 0.284428 10.609959 -14.418572 -7.541562 0.000000 0.000000 0.000000 -0.982379 0.490187 -19.282497 0.705839 -0.488453 -0.026996 -5.382933 10.318453 1.707178 0.000000 0.000000 0.000000
-82.037856 81.231230 337.768719 0.433376 0.428154 19.442767 0.348739 0.160050 -19.430190 0.358462 0.035997 0.047122 5.655578 -9.480132 -2.701675 0.000000 0.000000 0.000000 -2.214567 3.330533 -0.358031 -4.531680 33.661115 2.729210 -26.102243 -13.187565 41.714293 18.607083 -31.636609 -54.735221 0.000000 0.000000 0.000000 0.000000 0.000000 0.000000 1.959737 2.668656 1.565517 -41.121042 16.834850 15.963265 -2.214807 -20.558499 8.827648 18.963346 14.817557 -24.309862 0.000000 0.000000 0.000000 0.000000 0.000000 0.000000 -2.514391 0.680209 -19.717629 2.165132 -0.221948 0.283398 6.606179 -13.146091 -3.027634 0.000000 0.000000 0.000000 -1.103556 0.392792 -19.428126 0.737894 -0.431368 -0.014088 -3.344998 12.013571 -0.087934 0.000000 0.000000 0.000000
